<svg xmlns="http://www.w3.org/2000/svg" viewBox="0 0 28 20">
  <rect width="28" height="20" fill="#fff"/>
  <path fill="#d02f44" d="M28 0H0v1.33h28V0zM28 2.67H0V4h28V2.67zM0 5.33h28V6.67H0V5.33zM28 8H0v1.33h28V8zM0 10.67h28V12H0v-1.33zM28 13.33H0v1.33h28v-1.33zM0 16h28v1.33H0V16zM28 18.67H0V20h28v-1.33z"/>
  <rect width="12" height="9.33" fill="#46467f"/>
  <path fill="#fff" d="M1.33 2.67c0 .37-.3.67-.67.67s-.67-.3-.67-.67.3-.67.67-.67.67.3.67.67zM4 2.67c0 .37-.3.67-.67.67s-.67-.3-.67-.67.3-.67.67-.67.67.3.67.67zM7.33 2.67c0 .37-.3.67-.67.67s-.67-.3-.67-.67.3-.67.67-.67.67.3.67.67zM10.67 2.67c0 .37-.3.67-.67.67s-.67-.3-.67-.67.3-.67.67-.67.67.3.67.67zM3.33 4c.37 0 .67-.3.67-.67s-.3-.67-.67-.67-.67.3-.67.67.3.67.67.67zM6.67 4c.37 0 .67-.3.67-.67s-.3-.67-.67-.67-.67.3-.67.67.3.67.67.67zM8.67 4c.37 0 .67-.3.67-.67s-.3-.67-.67-.67-.67.3-.67.67.3.67.67.67zM10.67 5.33c0 .37-.3.67-.67.67s-.67-.3-.67-.67.3-.67.67-.67.67.3.67.67zM7.33 5.33c.37 0 .67-.3.67-.67s-.3-.67-.67-.67-.67.3-.67.67.3.67.67.67zM5.33 5.33c.37 0 .67-.3.67-.67s-.3-.67-.67-.67-.67.3-.67.67.3.67.67.67zM2 5.33c.37 0 .67-.3.67-.67s-.3-.67-.67-.67-.67.3-.67.67.3.67.67.67zM4 6c0 .37-.3.67-.67.67S2.67 6.37 2.67 6 .97 5.33 1.33 5.33 2 5.63 2 6zM6 6.67c.37 0 .67-.3.67-.67s-.3-.67-.67-.67-.67.3-.67.67.3.67.67.67zM9.33 6.67c.37 0 .67-.3.67-.67s-.3-.67-.67-.67-.67.3-.67.67.3.67.67.67zM10 8c.37 0 .67-.3.67-.67s-.3-.67-.67-.67-.67.3-.67.67.3.67.67.67zM8 8c.37 0 .67-.3.67-.67S8.37 6.67 8 6.67 7.33 6.97 7.33 7.33 7.63 8 8 8zM4.67 8c.37 0 .67-.3.67-.67S5.03 6.67 4.67 6.67 4 6.97 4 7.33 4.3 8 4.67 8zM2.67 7.33c0 .37-.3.67-.67.67S1.33 7.7 1.33 7.33 1.63 6.67 2 6.67s.67.3.67.67z"/>
</svg>
